<?xml version="1.0" encoding="iso-8859-1"?>
<!-- Generator: Adobe Illustrator 27.0.0, SVG Export Plug-In . SVG Version: 6.00 Build 0)  -->
<svg version="1.1" id="Layer_1" xmlns="http://www.w3.org/2000/svg" xmlns:xlink="http://www.w3.org/1999/xlink" x="0px" y="0px"
	 viewBox="0 0 1080 1080" style="enable-background:new 0 0 1080 1080;" xml:space="preserve">
<g id="jOXYuv_00000059280926228244231710000015530802107454875527_">
	<g>
		<path style="fill:#FFFFFF;" d="M-1096.986,624.57c-29.571,24.259-61.404,42.165-97.009,53.049
			c-36.563,11.178-73.799,15.838-112.13,13.236c-59.686-4.052-113.868-23.142-161.853-58.578
			c-61.925-45.73-102.714-106.073-118.112-181.819c-17.953-88.312-2.255-170.778,50.658-244.292
			c45.472-63.176,107.373-103.899,183.791-118.556c112.395-21.557,210.518,8.108,290.18,91.307
			c42.184,44.057,67.763,97.285,77.462,157.914c11.976,74.864-2.097,144.423-41.761,208.838
			c-6.472,10.51-14.144,20.281-21.075,30.129c16.578,16.848,32.934,33.697,49.534,50.303
			c72.002,72.024,144.087,143.966,216.117,215.962c30.761,30.746,61.451,61.563,92.2,92.321c6.321,6.323,10.636,13.651,11.107,22.72
			c0.747,14.406-5.353,25.458-17.743,32.548c-12.81,7.332-25.961,6.347-37.404-2.498c-9.421-7.282-17.713-16.082-26.179-24.536
			c-109.162-109.001-218.268-218.057-327.373-327.115C-1090.012,632.069-1093.281,628.469-1096.986,624.57z M-1287.605,149.175
			c-124.492-1.835-243.65,100.991-236.148,249.297c6.041,119.437,107.797,230.826,249.693,223.986
			c121.432-5.854,229.48-108.834,224.459-246.196C-1054.483,242.726-1164.945,148.647-1287.605,149.175z"/>
	</g>
</g>
<g id="PA83ST_00000108999225271955906400000009207483491181558670_">
	<g>
		<path style="fill:#FFFFFF;" d="M246.332,545.142c0-123.633,0.115-247.267-0.053-370.9c-0.074-54.398,37.245-95.214,84.434-106.203
			c8.323-1.938,17.087-2.772,25.648-2.781c125.186-0.121,250.374-0.33,375.559,0.201c47.165,0.2,81.932,22.215,103.171,64.533
			c6.521,12.994,9.123,27.183,9.125,41.76c0.039,246.825,0.034,493.651,0.136,740.476c0.014,34.04-10.607,63.433-36.41,86.45
			c-19.812,17.673-43.321,27.03-69.652,27.097c-130.294,0.334-260.589,0.324-390.883,0.047c-47.071-0.1-93.422-40.363-98.752-87.337
			c-3.012-26.542-2.295-53.564-2.363-80.372c-0.227-90.561-0.054-181.123-0.035-271.685c0.003-13.762,0-27.524,0-41.286
			C246.281,545.142,246.306,545.142,246.332,545.142z M402.584,127.043c-16.19,0-31.935,0.724-47.587-0.174
			c-22.149-1.27-44.11,18.992-44.096,43.566c0.144,249.703,0.075,499.406,0.12,749.109c0.004,22.881,19.492,42.608,42.312,42.624
			c127.626,0.091,255.252,0.071,382.878-0.005c9.539-0.006,18.09-3.306,25.723-9.2c14.72-11.367,17.692-27.16,17.684-44.436
			c-0.065-146.936-0.013-293.873-0.012-440.809c0.001-98.105-0.012-196.211-0.048-294.316
			c-0.008-22.785-15.207-43.439-36.492-45.722c-18.15-1.947-36.675-0.402-55.279-0.402c-0.268,14.096-3.925,26.743-12.034,37.742
			c-16.362,22.193-38.955,33.355-66.072,33.836c-41.493,0.737-83.009,0.278-124.515,0.171c-6.39-0.017-12.835-0.471-19.156-1.396
			C436.11,193.25,401.76,168.129,402.584,127.043z M544.865,125.839c0,0.01,0,0.019,0,0.029c-21.962,0-43.924-0.012-65.886,0.006
			c-8.603,0.007-12.854,3.552-12.373,10.226c0.411,5.702,4.111,8.324,12.081,8.326c43.925,0.01,87.85-0.008,131.775-0.037
			c7.114-0.005,12.211-4.045,12.06-9.433c-0.156-5.558-5.037-9.122-12.437-9.119C588.345,125.843,566.605,125.839,544.865,125.839z"
			/>
		<path style="fill:#FFFFFF;" d="M510.868,604.746c14.002-17.041,27.625-33.58,41.204-50.155
			c34.956-42.668,69.947-85.308,104.796-128.064c8.017-9.836,17.487-16.033,30.499-12.467c18.539,5.08,25.015,26.95,12.702,42.164
			c-9.193,11.359-18.709,22.456-28.038,33.706c-33.926,40.909-67.805,81.856-101.763,122.738
			c-12.168,14.649-24.331,29.309-36.829,43.674c-11.585,13.316-28.94,14.453-41.664,2.015
			c-21.395-20.917-42.117-42.522-63.144-63.815c-9.036-9.15-18.116-18.256-27.199-27.359c-11.552-11.577-12.379-27.152-1.981-37.867
			c10.492-10.812,26.17-10.876,37.883,0.757c23.281,23.123,46.151,46.66,69.184,70.032
			C507.757,601.364,508.938,602.684,510.868,604.746z"/>
	</g>
</g>
<g id="_x32_fFfMQ_00000140016079084771240370000002533009409356717965_">
	<g>
		<path style="fill:#FFFFFF;" d="M2567.168,580.158c12.158,19.18,3.836,34.126-9.982,47.859c-0.472,0.469-0.91,0.975-1.395,1.43
			c-8.845,8.297-13.102,17.88-12.79,30.623c0.415,16.925-4.404,32.722-16.331,45.827c-10.7,11.755-24.048,17.115-39.469,17.779
			c-30.299,1.305-59.16-6.711-88.208-13.767c-18.021-4.377-36.272-7.84-54.479-11.406c-7.707-1.51-13.671,2.117-18.743,7.75
			c-15.264,16.951-24.35,37.341-32.903,58.1c-11.618,28.198-17.94,57.477-17.876,87.963c0.02,9.254,1.17,18.609,2.827,27.732
			c2.703,14.882,8.764,28.246,19.979,38.965c4.968,4.748,4.989,10.886,1.987,16.556c-2.879,5.438-8.44,7.784-14.142,6.327
			c-4-1.021-8.043-3.859-10.92-6.953c-12.769-13.735-19.507-30.65-22.542-48.763c-7.583-45.251-1.773-89.318,15.268-131.616
			c7.163-17.778,15.807-35.336,26.349-51.295c20.507-31.045,32.897-36.329,72.971-29.213c27.4,4.865,54.218,12.951,81.568,18.172
			c13.532,2.583,27.829,3.593,41.507,2.341c16.157-1.48,25.243-14.012,26.048-30.389c0.412-8.381,0.975-16.82,2.412-25.068
			c1.797-10.316,7.368-18.883,14.693-26.29c2.496-2.525,5.15-4.902,7.538-7.524c5.398-5.927,4.777-9.015-2.34-12.552
			c-7.976-3.965-11.443-8.991-8.804-16.253c1.556-4.281,5.574-8.859,9.673-10.815c17.116-8.169,13.512-8.148,6.465-21.677
			c-2.959-5.681-6.166-11.355-8.149-17.397c-3.905-11.899-0.658-19.957,9.961-26.652c6.37-4.017,13.018-7.599,19.325-11.709
			c3.122-2.034,6.105-4.515,8.537-7.325c5.516-6.377,6.362-12.636,1.322-19.37c-6.751-9.019-14.525-17.273-21.88-25.839
			c-5.055-5.887-10.406-11.539-15.168-17.652c-16.236-20.841-21.867-44.526-18.827-70.632
			c7.023-60.316-3.784-116.917-35.831-168.976c-0.452-0.734-1.142-1.322-3.019-3.449c-15.555,14.328-32.422,27.283-46.08,43.023
			c-23.076,26.593-44.233,54.862-65.994,82.585c-29.121,37.1-59.89,72.693-98.498,100.279
			c-12.072,8.626-26.025,15.104-39.894,20.611c-18.759,7.449-34.611,0.346-47.918-13.611c-1.651-1.731-3.22-3.539-3.824-4.204
			c-16.283,7.083-31.657,13.697-46.933,20.531c-1.47,0.658-3.171,2.588-3.345,4.092c-4.646,40.209-0.302,73.107,42.603,100.863
			c6.746,4.364,14.809,6.824,22.463,9.614c8.58,3.127,12.84,9.658,10.421,17.168c-2.458,7.63-9.336,10.72-18.257,8.202
			c-23.779-6.713-35.74-13.703-59.818-35.273c0,4.697,0.002,8.545,0,12.393c-0.017,28.18,0.405,56.369-0.224,84.535
			c-0.351,15.739-3.155,31.267-9.309,46.021c-0.882,2.113-0.863,5.251,0.036,7.362c16.82,39.483,16.68,78.68-1.347,117.754
			c-0.697,1.511-0.734,3.888-0.049,5.393c20.517,45.092,15.771,87.8-11.83,128.434c-0.114,0.168-0.117,0.411-0.289,1.067
			c9.994,10.568,17.716,22.773,20.786,37.484c5.271,25.253,2.275,48.714-16.277,68.117c-18.899,19.766-44.77,15.901-57.945-8.232
			c-16.057-29.41-12.381-67.106,9.134-93.707c1.104-1.365,2.184-2.751,3.421-4.311c-15.559-18.277-24.861-39.421-28.548-62.734
			c-4.691-29.667-2.826-58.752,10.989-86.233c0.912-1.814,0.908-4.721,0.144-6.651c-16.319-41.256-17.502-82.693-2.126-124.493
			c0.826-2.246,0.585-5.098,0.137-7.539c-0.472-2.572-2.419-4.936-2.631-7.482c-0.979-11.73-8.785-16.046-18.796-18.899
			c-7.578-2.16-14.846-5.408-22.719-8.345c-0.222,2.196-0.498,3.676-0.501,5.157c-0.06,27.748-0.128,55.496-0.049,83.243
			c0.007,2.332,0.631,4.862,1.662,6.959c10.239,20.851,11.239,43.095,9.81,65.622c-1.115,17.586-4.635,34.642-12.921,50.475
			c-0.73,1.396-0.404,3.875,0.328,5.429c21.201,44.979,17.613,87.878-10.548,128.792c-0.375,0.545-0.652,1.157-1.163,2.075
			c10.332,10.828,18.329,23.154,21.439,38.173c3.906,18.858,2.926,37.04-7.641,53.825c-17.863,28.376-46.058,26.819-63.374,1.3
			c-18.29-26.954-17.055-62.051,2.572-89.146c1.416-1.954,2.807-3.927,4.339-6.072c-21.523-27.608-27.744-59.495-26.812-93.307
			c0.459-16.678,2.839-33.128,9.722-48.51c1.722-3.848,1.484-6.79,0.038-10.53c-14.796-38.278-19.243-77.785-6.693-117.023
			c4.78-14.946-0.304-26.705-2.359-39.783c-5.355-34.07-6.351-67.915,3.578-101.426c0.539-1.82,0.957-4.02,0.449-5.756
			c-14.942-51.071-16.018-103.511-15.814-156.121c0.211-54.499,8.335-107.666,26.812-159.005
			c21.024-58.419,56.391-106.595,105.144-145.029c43.94-34.639,93.6-55.503,149.354-60.246
			c96.887-8.243,185.764,13.945,262.078,75.733c53.268,43.129,85.003,100.125,97.785,167.616
			c5.555,29.332,5.104,58.823,1.608,88.124c-2.91,24.398,3.544,44.49,20.54,61.83c8.378,8.548,16.787,17.205,24.007,26.706
			c5.404,7.11,10.371,15.204,12.972,23.648c4.502,14.619-0.838,27.743-11.444,38.113c-6.424,6.281-13.977,11.542-21.517,16.511
			c-7.802,5.142-8.631,6.857-4.16,15.529c3.338,6.474,7.206,12.747,9.82,19.504c4.415,11.413,2.72,16.695-6.363,24.655
			C2570.509,577.163,2569.056,578.476,2567.168,580.158z M2201.216,384.563c11.18,12.835,15.734,14.287,30.548,7.681
			c19.847-8.851,36.654-22.321,52.463-36.978c29.706-27.541,55.012-58.962,79.556-91.036c13.868-18.123,27.508-36.43,41.782-54.228
			c17.687-22.055,38.764-40.607,63.062-57.86c-11.181-10.324-22.053-20.003-32.481-30.14c-5.5-5.346-11.243-5.337-18.085-3.633
			c-36.609,9.114-65.883,29.483-90.249,57.728c-21.951,25.446-37.098,55.031-51.974,84.774
			C2254.267,304.001,2235.917,349.039,2201.216,384.563z M2224.669,153.106c1.799,0.402,2.592,0.736,3.383,0.734
			c16.202-0.049,32.412,0.177,48.603-0.295c20.549-0.6,40.098-4.188,54.605-20.958c2.273-2.627,5.513-4.444,8.39-6.518
			c18.622-13.424,38.727-24.014,60.82-31.162c-0.683-0.949-0.944-1.704-1.457-1.965c-18.318-9.333-36.629-18.683-55.059-27.792
			c-1.422-0.703-3.928-0.142-5.552,0.629c-38.197,18.14-72.852,41.217-101.156,73.065
			C2233.219,143.376,2229.224,147.939,2224.669,153.106z M2158.25,274.99c10.764,0,21.172,1.657,30.846-0.306
			c30.862-6.265,57.755-18.827,72.87-49.308c7.519-15.162,17.092-29.306,25.965-44.299c-24.422,0-48.488,0.476-72.516-0.273
			c-7.783-0.243-12.235,2.255-16.37,8.254c-17.09,24.797-29.624,51.797-39.552,80.102
			C2158.936,270.747,2158.774,272.474,2158.25,274.99z M2162.247,97.769c-16.439,19.8-29.22,42.645-39.548,66.978
			c-6.37,15.008-11.546,29.978-8.179,46.881c3.351,16.822,8.378,32.784,18.088,48.054c0.979-2.214,1.551-3.558,2.162-4.884
			c10.267-22.246,19.452-45.089,31.242-66.497c6.453-11.717,11.252-21.791,4.039-34.304c-0.422-0.733-0.498-1.696-0.615-2.568
			C2167.031,133.555,2164.643,115.679,2162.247,97.769z M2166.925,52.34c-3.937,0.19-6.396,0.076-8.775,0.459
			c-33.942,5.475-64.12,19.762-91.713,39.798c-2.165,1.572-3.83,5.511-3.705,8.257c0.442,9.713,1.43,19.434,2.823,29.064
			c2.655,18.36,8.663,35.546,19.541,51.806C2102.083,132.233,2127.64,88.842,2166.925,52.34z M2045.286,314.59
			c0.698-2.017,1.245-2.992,1.359-4.016c3.355-30.049,10.814-59.122,21.419-87.358c2.815-7.496,2.037-12.728-2.7-19.629
			c-8.819-12.848-15.628-27.075-23.113-40.44c0.301-0.388-0.251,0.064-0.47,0.642c-12.311,32.53-22.213,65.755-28.037,100.081
			c-1.002,5.908-2.628,13.604,0.103,17.872c6.349,9.924,15.056,18.373,23.089,27.161
			C2039.011,311.173,2042.128,312.49,2045.286,314.59z M2130.179,396.009c33.294-7.895,89.979-67.156,99.148-102.945
			c-0.417,0.073-0.872,0.061-1.245,0.23c-22.546,10.232-46.032,13.911-70.524,9.737c-4.628-0.789-6.562,1.089-7.574,5.036
			c-5.1,19.881-10.458,39.701-15.182,59.672C2132.636,376.901,2131.716,386.358,2130.179,396.009z M2296.788,55.688
			c-0.826-0.631-1.136-1.048-1.52-1.135c-28.739-6.455-57.818-8.13-87.13-5.866c-1.665,0.129-4.016,2.021-4.622,3.629
			c-11.163,29.623-14.483,59.881-6.605,91.823C2224.313,107.691,2257.275,78.345,2296.788,55.688z M2102.2,399.505
			c0.432-2.146,0.707-3.123,0.818-4.118c3.734-33.48,9.829-66.457,20.423-98.53c0.596-1.803-0.822-4.788-2.14-6.62
			c-6.816-9.476-14.401-18.435-20.715-28.221c-3.865-5.992-5.926-13.148-9.395-21.162c-3.324,11.229-6.615,21.049-9.12,31.065
			c-6.685,26.73-12.116,53.523-4.725,81.187C2081.924,370.237,2089.494,385.517,2102.2,399.505z M1948.7,268.746
			c-0.444,1.403-1.261,3.391-1.698,5.46c-5.673,26.88-9.005,54.01-11.42,81.418c-1.378,15.641,3.187,27.221,12.727,37.896
			c6.831,7.645,14.527,14.518,21.854,21.752c0.487-0.519,0.745-0.667,0.744-0.811c-0.454-37.537,1.905-74.848,8.715-111.825
			c0.251-1.365-0.582-3.409-1.606-4.456C1968.46,288.412,1958.751,278.794,1948.7,268.746z M2005.394,320.668
			c-0.326,1.791-0.815,4.155-1.183,6.538c-5.099,32.963-5.817,66.153-5.654,99.431c0.035,7.224,1.587,11.676,8.504,15.007
			c8.979,4.324,17.262,10.094,26.657,15.73c-0.486-8.717-1.142-16.219-1.281-23.73c-0.504-27.18,3.622-53.811,9.581-80.244
			c0.492-2.181-0.533-5.888-2.186-7.176C2028.707,337.56,2017.22,329.357,2005.394,320.668z M2000.666,469.849
			c-0.63,0.573-1.26,1.147-1.889,1.72c0,34.106-0.018,68.212,0.068,102.318c0.003,1.35,0.64,3.496,1.589,3.924
			c10.283,4.636,20.688,9.002,31.969,13.831c0-3.145,0.065-4.452-0.01-5.751c-1.533-26.74,0.794-53.064,9.342-78.554
			c1.809-5.393,0.799-9.184-3.422-12.097C2025.856,486.641,2013.227,478.294,2000.666,469.849z M2063.24,534.403
			c-0.693,1.571-1.236,2.335-1.367,3.163c-3.727,23.575-4.328,47.175-0.056,70.74c2.62,14.453,6.547,28.589,15.87,40.278
			c3.381,4.24,8.601,7.014,12.981,10.457c2.257-5.085,6.173-10.069,6.488-15.271c1.522-25.151,2.114-50.36,2.872-75.554
			c0.042-1.415-1.009-3.654-2.165-4.193C2083.867,557.488,2073.182,547.096,2063.24,534.403z M2063.17,390.794
			c-0.806,3.902-1.324,5.821-1.586,7.774c-2.937,21.878-3.207,43.777,0.057,65.634c3.656,24.484,14.254,45.497,32.178,62.685
			c1.583,1.518,3.517,2.672,6.313,4.762c0-32.302,0.029-62.921-0.084-93.539c-0.006-1.54-0.79-3.679-1.951-4.521
			C2083.271,422.84,2071.82,409.291,2063.17,390.794z M1942.974,698.847c-0.414,1.447-1.137,3.497-1.584,5.606
			c-4.114,19.397-2.745,38.747,0.918,57.997c2.828,14.861,7.155,29.25,16.547,41.499c7.293,9.511,11.705,9.157,16.238-1.847
			c11.086-26.916,11.12-54.284,1.711-81.64c-0.999-2.905-4.077-5.649-6.881-7.276C1961.37,708.224,1952.48,703.846,1942.974,698.847
			z M2063.686,677.458c-0.281,0.834-0.703,1.795-0.928,2.801c-4.863,21.752-4.506,43.416,0.947,65.036
			c3.493,13.849,7.979,27.219,18.56,37.461c6.01,5.818,8.816,5.245,12.276-2.41c9.068-20.058,9.317-40.745,6.048-62.309
			C2097.217,695.793,2083.323,684.643,2063.686,677.458z M2064.853,805.897c-0.61,1.648-1.481,3.612-2.073,5.657
			c-5.405,18.696-5.258,37.569-1.843,56.572c2.345,13.047,6.701,25.313,14.81,35.862c6.574,8.553,10.03,8.462,14.706-0.994
			c12.565-25.411,14.776-51.657,4.21-78.388c-1.003-2.538-2.832-5.433-5.094-6.665
			C2081.698,813.653,2073.468,810.025,2064.853,805.897z M1972.436,562.808c-0.52-10.428-1.248-18.957-1.313-27.491
			c-0.2-25.95-0.008-51.904-0.375-77.85c-0.042-2.96-1.962-6.655-4.21-8.674c-5.744-5.161-12.274-9.435-18.28-14.321
			c-4.298-3.497-8.257-7.409-13.834-12.467c0.681,12.528,1.21,22.907,1.816,33.281c1.449,24.814,5.014,49.305,12.417,73.074
			C1952.727,541.425,1959.427,553.022,1972.436,562.808z M1948.684,833.488c-0.995,3.058-2.379,6.299-3.093,9.681
			c-3.563,16.874-3.5,33.802-0.562,50.78c2.257,13.037,6.182,25.418,14.318,36.028c4.79,6.247,8.719,6.361,12.251-0.177
			c14.331-26.529,17.681-53.967,4.838-82.111c-1.195-2.618-4.253-4.93-6.995-6.187
			C1963.063,838.579,1956.35,836.388,1948.684,833.488z M1941.928,572.931c-2.719,20.685-2.58,41.648,1.194,62.457
			c2.584,14.246,6.943,28.007,16.723,39.208c2.988,3.422,6.93,6.011,10.955,9.422c0.91-2.337,1.338-2.923,1.338-3.51
			c0.025-27.263,0.048-54.525-0.097-81.787c-0.008-1.437-1.133-3.294-2.314-4.231
			C1960.632,587.273,1951.396,580.236,1941.928,572.931z M1981.643,264.552c0.884-0.292,1.767-0.584,2.651-0.876
			c8.767-46.502,20.795-91.992,42.663-136.164c-2.11,1.442-2.83,1.781-3.353,2.314c-26.415,26.917-45.929,58.325-60.033,93.144
			c-1.183,2.921-1.048,7.394,0.375,10.171C1969.426,243.826,1975.679,254.115,1981.643,264.552z M2065.554,988.605
			c0.263,10.496,1.696,19.604,7.607,27.385c5.848,7.698,11.487,8.071,18.258,1.339c13.788-13.708,12.98-46.218-1.454-59.084
			c-4.471-3.986-8.67-3.61-12.84,0.525C2068.518,967.306,2066.2,978.15,2065.554,988.605z M1985.052,1013.212
			c-0.6-0.203-1.201-0.406-1.801-0.608c0.341-11.321-2.811-21.441-10.328-30.022c-5.007-5.716-10.08-5.88-14.992-0.093
			c-9.072,10.69-10.318,23.425-7.274,36.3c1.512,6.397,4.982,12.826,9.129,17.984c5.621,6.991,12.265,6.608,16.746-1.136
			C1980.485,1028.806,1982.296,1020.735,1985.052,1013.212z"/>
	</g>
</g>
</svg>
